<?xml version="1.0" encoding="iso-8859-1"?>
<!-- Generator: Adobe Illustrator 19.0.0, SVG Export Plug-In . SVG Version: 6.00 Build 0)  -->
<svg version="1.1" id="Layer_1" xmlns="http://www.w3.org/2000/svg" xmlns:xlink="http://www.w3.org/1999/xlink" x="0px" y="0px"
	 viewBox="0 0 297 297" style="enable-background:new 0 0 297 297;" xml:space="preserve">
<g>
	<g>
		<g>
			<g>
				<g>
					<g>
						<circle style="fill:#34495E;" cx="148.5" cy="148.5" r="148.5"/>
					</g>
				</g>
			</g>
		</g>
	</g>
	<path style="fill:#243F4F;" d="M295.883,130.253l-78.72-78.728L86.311,227.204l69.617,69.611
		C234.491,292.944,297,228.023,297,148.5C297,142.321,296.616,136.233,295.883,130.253z"/>
	<circle style="fill:#3498DB;" cx="148.5" cy="165" r="82.5"/>
	<path style="fill:#2980B9;" d="M148.5,82.5c-0.112,0-0.221,0.008-0.333,0.008v164.983c0.112,0,0.221,0.008,0.333,0.008
		c45.563,0,82.5-36.937,82.5-82.5S194.063,82.5,148.5,82.5z"/>
	<path style="fill:#FFFFFF;" d="M148.5,77c-48.523,0-88,39.477-88,88s39.477,88,88,88s88-39.477,88-88S197.023,77,148.5,77z
		 M203.383,159.5c-0.357-9.438-1.625-18.599-3.746-27.198c1.495,0.771,2.962,1.568,4.369,2.412
		c11.574,6.944,18.786,15.592,20.857,24.785L203.383,159.5L203.383,159.5z M192.375,159.5H154v-38.375
		c11.607,0.473,22.693,2.437,32.633,5.741C189.938,136.807,191.902,147.893,192.375,159.5z M154,110.117v-21.48
		c9.193,2.07,17.841,9.282,24.785,20.857c0.845,1.408,1.641,2.874,2.412,4.369C172.599,111.741,163.438,110.474,154,110.117z
		 M143,88.637v21.48c-9.438,0.357-18.599,1.625-27.198,3.746c0.771-1.495,1.568-2.962,2.412-4.369
		C125.159,97.919,133.807,90.707,143,88.637z M143,121.125V159.5h-38.375c0.473-11.607,2.437-22.693,5.741-32.634
		C120.307,123.562,131.393,121.598,143,121.125z M93.617,159.5h-21.48c2.07-9.193,9.282-17.841,20.857-24.785
		c1.408-0.845,2.874-1.641,4.369-2.412C95.241,140.901,93.974,150.062,93.617,159.5z M93.617,170.5
		c0.357,9.438,1.625,18.599,3.746,27.198c-1.495-0.771-2.962-1.568-4.369-2.412c-11.574-6.944-18.786-15.592-20.857-24.785
		L93.617,170.5L93.617,170.5z M104.625,170.5H143v38.375c-11.607-0.473-22.693-2.437-32.633-5.741
		C107.062,193.193,105.098,182.107,104.625,170.5z M143,219.883v21.48c-9.193-2.07-17.841-9.282-24.785-20.857
		c-0.845-1.408-1.641-2.874-2.412-4.369C124.401,218.259,133.562,219.526,143,219.883z M154,241.363v-21.48
		c9.438-0.357,18.599-1.625,27.198-3.746c-0.771,1.495-1.568,2.962-2.412,4.369C171.841,232.081,163.193,239.293,154,241.363z
		 M154,208.875V170.5h38.375c-0.473,11.607-2.437,22.693-5.741,32.634C176.693,206.438,165.607,208.402,154,208.875z M203.383,170.5
		h21.48c-2.07,9.193-9.282,17.841-20.857,24.785c-1.408,0.845-2.874,1.641-4.369,2.412
		C201.759,189.099,203.026,179.938,203.383,170.5z M217.326,130.536c-2.358-1.836-4.898-3.597-7.66-5.254
		c-4.45-2.67-9.299-5.002-14.446-7.002c-2-5.148-4.332-9.997-7.002-14.446c-1.657-2.761-3.418-5.302-5.254-7.66
		C197.784,103.625,209.875,115.717,217.326,130.536z M114.036,96.174c-1.836,2.358-3.597,4.898-5.254,7.66
		c-2.67,4.449-5.002,9.299-7.002,14.446c-5.148,2-9.997,4.332-14.446,7.002c-2.761,1.657-5.302,3.418-7.66,5.254
		C87.125,115.717,99.216,103.625,114.036,96.174z M79.674,199.464c2.358,1.836,4.898,3.597,7.66,5.254
		c4.449,2.67,9.299,5.002,14.446,7.002c2,5.148,4.332,9.997,7.002,14.446c1.657,2.761,3.418,5.302,5.254,7.66
		C99.216,226.375,87.125,214.283,79.674,199.464z M182.964,233.826c1.836-2.358,3.597-4.898,5.254-7.66
		c2.67-4.449,5.002-9.299,7.002-14.446c5.148-2,9.997-4.332,14.446-7.002c2.761-1.657,5.302-3.418,7.66-5.254
		C209.875,214.283,197.784,226.375,182.964,233.826z"/>
	<path style="fill:#D0D5D9;" d="M148.5,77c-0.111,0-0.222,0.004-0.333,0.004v175.992c0.111,0,0.222,0.004,0.333,0.004
		c48.523,0,88-39.477,88-88S197.023,77,148.5,77z M217.326,130.536c-2.358-1.836-4.898-3.597-7.66-5.254
		c-4.45-2.67-9.299-5.002-14.446-7.002c-2-5.148-4.332-9.997-7.002-14.446c-1.657-2.761-3.418-5.302-5.254-7.66
		C197.784,103.625,209.875,115.717,217.326,130.536z M224.863,159.5h-21.48c-0.357-9.438-1.625-18.599-3.746-27.198
		c1.495,0.771,2.962,1.568,4.369,2.412C215.581,141.659,222.793,150.307,224.863,159.5z M154,88.637
		c9.193,2.07,17.841,9.282,24.785,20.857c0.845,1.408,1.641,2.874,2.412,4.369c-8.599-2.121-17.76-3.388-27.198-3.746L154,88.637
		L154,88.637z M154,121.125c11.607,0.473,22.693,2.437,32.633,5.741c3.304,9.941,5.268,21.026,5.741,32.634H154V121.125z M154,170.5
		h38.375c-0.473,11.607-2.437,22.693-5.741,32.634c-9.941,3.304-21.026,5.268-32.633,5.741V170.5H154z M178.785,220.507
		c-6.944,11.574-15.592,18.786-24.785,20.857v-21.48c9.438-0.357,18.599-1.625,27.198-3.746
		C180.426,217.633,179.63,219.099,178.785,220.507z M182.964,233.826c1.836-2.358,3.597-4.898,5.254-7.66
		c2.67-4.449,5.002-9.299,7.002-14.446c5.148-2,9.997-4.332,14.446-7.002c2.761-1.657,5.302-3.418,7.66-5.254
		C209.875,214.283,197.784,226.375,182.964,233.826z M204.007,195.285c-1.408,0.845-2.874,1.641-4.369,2.412
		c2.121-8.599,3.388-17.76,3.746-27.198h21.48C222.793,179.693,215.581,188.341,204.007,195.285z"/>
	<g>
		<path style="fill:#E67E22;" d="M197.5,43.25c-15.188,0-27.5,12.312-27.5,27.5s27.5,55,27.5,55s27.5-39.812,27.5-55
			S212.688,43.25,197.5,43.25z M197.5,84.5c-7.594,0-13.75-6.156-13.75-13.75S189.906,57,197.5,57s13.75,6.156,13.75,13.75
			S205.094,84.5,197.5,84.5z"/>
	</g>
</g>
<g>
</g>
<g>
</g>
<g>
</g>
<g>
</g>
<g>
</g>
<g>
</g>
<g>
</g>
<g>
</g>
<g>
</g>
<g>
</g>
<g>
</g>
<g>
</g>
<g>
</g>
<g>
</g>
<g>
</g>
</svg>
