<svg xml:space="preserve" viewBox="0 0 100 100" y="0" x="0" xmlns="http://www.w3.org/2000/svg" id="Layer_1" version="1.1" style="height:100%;width:100%;background:0 0;shape-rendering:auto" width="200" height="200"><g class="ldl-scale" style="transform-origin:50% 50%;transform:rotate(0deg) scale(.8,.8)"><g class="ldl-ani" style="transform-origin:50px 50px;transform:translate(0,0) rotate(0deg) scale(1,1) skewX(0deg) skewY(0deg);opacity:1;animation:1.72414s linear 0s infinite normal forwards running move-fade-ttb-852a57d5-f18d-4859-ab99-999e3eb1b767"><g style="transform-origin:50px 50px" class="ldl-layer"><path fill="#e0e0e0" d="M53.7 13.1h-.9v8.4c-.9-.3-1.8-.4-2.7-.4H50c-1 0-1.9.2-2.7.4v-8.4h-.9c-9.3 0-16.8 7.5-16.8 16.8v7.9H41v5.6H29.5v22.9c0 11.1 9 20.3 20.2 20.5h.4c5.4 0 10.6-2.2 14.5-6.2 3.9-4 6.1-9.3 6.1-14.8V43.5H59v-5.6h11.6V30c-.1-9.4-7.6-16.9-16.9-16.9zm2 33.2c0 3.1-2.5 5.6-5.6 5.6H50c-3.1 0-5.6-2.5-5.6-5.6V30c0-3.1 2.5-5.6 5.6-5.6h.1c3.1 0 5.6 2.5 5.6 5.6v16.3z" style="fill:#e0e0e0" class="ldl-ani"/></g><g style="transform-origin:50px 50px" class="ldl-layer"><path fill="#353035" d="M50.1 24.4H50c-3.1 0-5.6 2.5-5.6 5.6v16.3c0 3.1 2.5 5.6 5.6 5.6h.1c3.1 0 5.6-2.5 5.6-5.6V30c0-3.1-2.5-5.6-5.6-5.6z" style="fill:#353035" class="ldl-ani"/></g><g style="transform-origin:50px 50px" class="ldl-layer"><path fill="#010101" d="M53.7 7.5h-7.4c-12.4 0-22.4 10.1-22.4 22.4v36.4c0 14.2 11.5 25.9 25.6 26.1h.5c7 0 13.6-2.8 18.5-7.9 4.9-5.1 7.6-11.7 7.6-18.7V29.9c.1-12.3-10-22.4-22.4-22.4zm16.8 30.4H59v5.6h11.6v22.4c0 5.6-2.2 10.8-6.1 14.8-3.9 4-9.1 6.2-14.5 6.2h-.4c-11.1-.2-20.2-9.4-20.2-20.5V43.5H41v-5.6H29.5V30c0-9.3 7.5-16.8 16.8-16.8h.9v8.4c.9-.3 1.8-.4 2.7-.4h.1c1 0 1.9.2 2.7.4v-8.4h.9c9.3 0 16.8 7.5 16.8 16.8v7.9z" style="fill:#010101" class="ldl-ani"/></g></g></g><style id="move-fade-ttb-852a57d5-f18d-4859-ab99-999e3eb1b767">@keyframes move-fade-ttb-852a57d5-f18d-4859-ab99-999e3eb1b767{0%,to{transform:translate(0,0) rotate(0deg) scale(1,1) skewX(0deg) skewY(0deg);opacity:1}40%{transform:translate(0,40px) rotate(0deg) scale(1,1) skewX(0deg) skewY(0deg);opacity:1}49.99999%{transform:translate(0,49.99999px) rotate(0deg) scale(1,1) skewX(0deg) skewY(0deg);opacity:0}50%{transform:translate(0,-50px) rotate(0deg) scale(1,1) skewX(0deg) skewY(0deg);opacity:0}50.00001%{transform:translate(0,-49.99999px) rotate(0deg) scale(1,1) skewX(0deg) skewY(0deg);opacity:0}60%{transform:translate(0,-40px) rotate(0deg) scale(1,1) skewX(0deg) skewY(0deg);opacity:1}}</style></svg>